/* XPM */
static char *grass[] = {
/* columns rows colors chars-per-pixel */
"64 64 254 2 ",
"   c #181E13",
".  c #11180E",
"X  c #1E2C18",
"o  c #1B2515",
"O  c #1E3219",
"+  c #13220C",
"@  c #222E1A",
"#  c #232D18",
"$  c #24331C",
"%  c #29341C",
"&  c #253A1A",
"*  c #2A3C1D",
"=  c #243717",
"-  c #33361D",
";  c #2C3C22",
":  c #273522",
">  c #323D22",
",  c #393A28",
"<  c #2C421C",
"1  c #2A471C",
"2  c #334C1E",
"3  c #34431D",
"4  c #34541E",
"5  c #3A661F",
"6  c #2C4323",
"7  c #2C4821",
"8  c #324423",
"9  c #334B24",
"0  c #3A4C26",
"q  c #33452A",
"w  c #3B472B",
"e  c #354B2A",
"r  c #3B4D2B",
"t  c #3B4127",
"y  c #345323",
"u  c #3A5325",
"i  c #365A24",
"p  c #3C5C25",
"a  c #36542A",
"s  c #3B532B",
"d  c #3D5B2B",
"f  c #3B4C33",
"g  c #364430",
"h  c #3D5333",
"j  c #3E5B33",
"k  c #2E5121",
"l  c #3D6125",
"z  c #3D632A",
"x  c #3F6928",
"c  c #3E6332",
"v  c #434A29",
"b  c #53482C",
"n  c #415D26",
"m  c #42542C",
"M  c #435C2C",
"N  c #4A5C2D",
"B  c #49562A",
"V  c #444D34",
"C  c #435532",
"Z  c #4A5531",
"A  c #435B33",
"S  c #4B5D34",
"D  c #455C3A",
"F  c #4B5C3B",
"G  c #46553A",
"H  c #545D37",
"J  c #545133",
"K  c #64593F",
"L  c #436327",
"P  c #436B25",
"I  c #43632C",
"U  c #4A642D",
"Y  c #446B2C",
"T  c #4A6C2D",
"R  c #486825",
"E  c #46722C",
"W  c #4B732D",
"Q  c #4B7829",
"!  c #537C2D",
"~  c #55722F",
"^  c #456332",
"/  c #4B6434",
"(  c #456B33",
")  c #4B6C33",
"_  c #4C633B",
"`  c #4C6C3A",
"'  c #46643A",
"]  c #546435",
"[  c #526C35",
"{  c #51653C",
"}  c #536C3B",
"|  c #5C6C3C",
" . c #596934",
".. c #4C7333",
"X. c #4E7A34",
"o. c #4D733A",
"O. c #4B7639",
"+. c #527434",
"@. c #537B34",
"#. c #5A7D35",
"$. c #53733B",
"%. c #5A743D",
"&. c #547B3B",
"*. c #5B7C3D",
"=. c #5A7534",
"-. c #54672A",
";. c #62633B",
":. c #626B3D",
">. c #62743D",
",. c #627C3E",
"<. c #6B7A32",
"1. c #565E45",
"2. c #445741",
"3. c #4E6543",
"4. c #4E6C42",
"5. c #536543",
"6. c #536B43",
"7. c #5A6C44",
"8. c #596949",
"9. c #4E7341",
"0. c #547342",
"q. c #5B7543",
"w. c #557B42",
"e. c #5B7B44",
"r. c #5C754C",
"t. c #5C7C4A",
"y. c #56754A",
"u. c #5A6D51",
"i. c #5E7951",
"p. c #646C43",
"a. c #696B49",
"s. c #627344",
"d. c #627C44",
"f. c #617C4B",
"g. c #697949",
"h. c #657C53",
"j. c #6C7B53",
"k. c #697D5C",
"l. c #637859",
"z. c #737E50",
"x. c #727446",
"c. c #8B7B67",
"v. c #8E7157",
"b. c #4E8027",
"n. c #53832E",
"m. c #558334",
"M. c #5A8335",
"N. c #5C8A35",
"B. c #55833C",
"V. c #5B833C",
"C. c #5D893C",
"Z. c #568937",
"A. c #628C36",
"S. c #62853D",
"D. c #638B3D",
"F. c #658A3B",
"G. c #65913C",
"H. c #69943B",
"J. c #5C8343",
"K. c #5E8943",
"L. c #5E834B",
"P. c #588343",
"I. c #5E9144",
"U. c #638444",
"Y. c #648B44",
"T. c #698B45",
"R. c #64844C",
"E. c #6A844C",
"W. c #658B4B",
"Q. c #6B8C4C",
"!. c #6A8544",
"~. c #73884C",
"^. c #659143",
"/. c #6B9344",
"(. c #6C934C",
"). c #6A9749",
"_. c #72944D",
"`. c #739A4B",
"'. c #759847",
"]. c #658452",
"[. c #6A8554",
"{. c #668B52",
"}. c #6B8C53",
"|. c #6C845B",
" X c #6D8B5A",
".X c #668959",
"XX c #728C54",
"oX c #718559",
"OX c #728D5B",
"+X c #778756",
"@X c #6C9353",
"#X c #6F9A53",
"$X c #6D925A",
"%X c #6F985B",
"&X c #729354",
"*X c #7A9553",
"=X c #749A54",
"-X c #7A9B54",
";X c #73945B",
":X c #7A935C",
">X c #759B5A",
",X c #7A9C5C",
"<X c #7BA254",
"1X c #7CA25C",
"2X c #78A254",
"3X c #7AA44B",
"4X c #6B8463",
"5X c #748D63",
"6X c #778A66",
"7X c #6F9061",
"8X c #749362",
"9X c #7B9564",
"0X c #759A62",
"qX c #7C9B64",
"wX c #7B936B",
"eX c #7D9B6B",
"rX c #779969",
"tX c #7D9372",
"yX c #7B8E70",
"uX c #7EA263",
"iX c #7EA269",
"pX c #7EA071",
"aX c #859C58",
"sX c #84875D",
"dX c #82A35D",
"fX c #84A859",
"gX c #80AA4E",
"hX c #839C6D",
"jX c #839A65",
"kX c #879B75",
"lX c #959C75",
"zX c #8D8A6A",
"xX c #83A364",
"cX c #84A965",
"vX c #84A46B",
"bX c #8BA969",
"nX c #84A373",
"mX c #8AA574",
"MX c #8CAB73",
"NX c #8BA67B",
"BX c #93AD7D",
"VX c #90AC73",
"CX c #96B476",
"ZX c #8FAE6B",
"AX c #A58D7B",
"SX c #A1C174",
"DX c #97AC85",
"FX c #9AB587",
"GX c #95AD8A",
"HX c #A5B98A",
"JX c #A3B694",
"KX c #B6BCA5",
"LX c #ABC191",
"PX c #B3C6A5",
/* pixels */
"HXMX@X} ( ..B.( [ U U C./ ) o.>X X..B.&.xX;XX.% 0 U ;X; : l.q.$ 9 ) ^ @XW.%XiX=XMXrXq j h.s./ %.*. X8Xz R.%.W.T %.M e.s   o 8.C ",
"#.F.@X0...p ( Y.; 5.r.t.%.p 7 W.KXf ^ / VXi 9 9 < R.5Xt.( Q @.D _ `.&X( s 8XK.p e.R.|.qX XT.C.} p OX9Xt.f.rX) x N % o A H N p.0 ",
"e.+.{.L.e.L.U.&.i ].r.%XC.M.( ..cXiX).8 # < +.U.& |.)  X/.m.e.G ] hX} i 3. X..6 s } 9 ;XcXY m.!.A U =X^ @XFX0.%.V ] OXJ.*.oXq.XX",
"R. X.Xe.U &.&./ 9 $   5.$ yXmX& e.&.Z.&X7.9 ;X9X0XL.( DX,.FXxX3.; nXuXL.7.` @.(.p d.;XJ.qXiX@X(.OXK.) ` R.=X;X%.r NXxXxXj.;XR._.",
"M.f.w.wX X&.`.F.C.J.6 2.4.@ +.U.Y.<XP b.LXY.Y.& g.MX] ..3 *X%.nXF MXp z t.9 {.W.J.f.t.e.C |.Z.@.6 s e.` W.9 ^ %.Y.].e.T.f.%.&.Y.",
"m / ^ ] XXe.w.s @XZ.;X X%.& %.*X3X[ u P N.F.T.x. .;Xj.XXW Q @.t.@ t.` w.rX` %.+.+.s @XC 3.0.*...@...%.(.@.J.^ U e.o.H.<X) & U.R.",
"&./.&X0.U.~...& *.vXZ.Q U a $ $ @.'.M.i ^.T.U 3 DXwX7X^ @.B.Z.U 8 6 h o.GX( u N *.a u v h.7.R.0.i ..=XK.L.J.R.r s &.A U.e.].|.R.",
"&.C.@X;Xe #.N.J.` E.Q A.(.o.X.Y %.9 ..+ -XBXi 1 J.wXt.A p E Y.J.U & 9 6 / A U J z.(.*.m |.j r.c W ! @XP.%.) %.*.>.M e %.*.R.0X@X",
"W n.W.-X*XfXdX@XY %.n W %.1XW J.@.z J.*.Y xXp W.P.o.%X8XL.L.&. Xh.o i i z +.J.8 R.J.U.&.W. X8.0.U n.8 T 9 ;.) ; w S @.p ( ( A 9 ",
"%.T '.#._.M.W.) 1 Y.r.dXU 2X` -Xs 4 U #XZ.Y.XX6 ; $ JXW.@Xi qX|.e.} ) C.# P U.e.8X>X) O 9 E._.p @.W Q Y.Y 0.F.M x U ( %XNX8X8 9 ",
"z A.N.m.+.e.0XB.Z.Z.) } q V *.T.xX^ >X{.B.qX|.r o s ^ i 0X^.8.w  X%   J   f.DXmXw.].%.t.B.Y.F.x z X.) ^ w.;XK.W ( o.a u.8.GX_ q ",
"Y %.C.Y +.i ;X&.>X(.vX].6X@ p F.lX2.s.w $ r.T.(.e.N.Z.p r.vX Xv <.v.v U . mX] Y.B.;Xw.&.) < i ..) h.mXhX7.Y &.( p ^ 0.6 q r.+.K.",
"..;X Xw.N N F.n.-X`.BX'.Y.[ ) (.KX:Xg.z.8 1.rX>X%.U ^.ZXbXlXp Y.E.j.K ,.e fXSXT ( |.}  X XL.8.U 0.cXT.LXOX%XJ.` @.e.4.L.F.W p %.",
"1 y.e ;X8 8 @.Z.`.dXkXU x #.G.p j.aXz.*X7.; 0XR.*.s [ /.ZXFX) L aXjXAXzX< 6XdX^.E._ ( {.qX*.T 3 ;XU.@X>XU.L.%.^ C.*.kXOX..X.M.z ",
"X.J.&  X/ & i Y Q M Y.u  .U.@.m.7.:X*.2 7.q [ ~ F. .p.=.cX`.*X+.F.~ b ,.M.T.&X&.) s.vX_  Xs p *. Xa 0Xo.& ^ W.U. X: e S %.o.p u ",
"^ 4Xt.qXt.T.R.z ! 2 F.W +X,.C.m.(.bXHX+XZ j.:XfX~.@Xz C.=Xm.s./ _ XX;.B ].q.0.qXC ; 7.s.%.` _ uX9 ) _ ..^.9 f.jXBXf.e.m C.Z.C.+.",
"(.W.W.;XcXCXo.z P @.+.9 1.3 & ( T T.fXF.+Xs.w m } FXw.+.[ w s hX7.hXe.vXlX(.>XeX_ q . v Y 5.6 r.vXw.t.A @Xo.U lXsX_./ F E Z.*.F.",
"&.&.&.vXxXFXkXp L +.hXc.+.} J...+.e./ } q.E.s.; a %XA @.#XR.5X&X XZX&X X%.K.ZXDXh.F $ ..OXqX5X5X%.z  XA C.[ m.U.m :.J.%.+.i 1XW.",
"X.} U.) 5XmXMX@.Q U $ [ p k.5X(.&X| p.q.R.Y (.v S (.X.( ) < & i 4 *.ZX-XW.cXbX+X| B s z d...L.$ t.o.eX` 9 K C.T.K./ zX5.A ^ rX&.",
"o.(  XX.U F 8 F.e.-XS 8XyXi 0.R.T.(.s @.%.U C h 6 J.W.9 X O 6 < l ( j W.w.A ) ` ] | ) ^ m.B.+.9 6 & i ` &.e ]._.<XU.E.d.a.w 7.4.",
"a X.+.W.T.) r h = d.) OXh.A ^ u 9 Y.X.p  X:X;Xy.j &.|.z A _ e.)  X9 5X{.Q dX'.U.;.].r.M T @.Y.J.@ 9 Y 9 W vX0.~.xXF.s 0.8 b p.k.",
"|.%.@.) Y.@.q.=XZ.=X:Xt.5.$ 8 J.%.s &.3.OX-X@Xq.w.K.%.( A X D h ] './.*.i @.F.+.< rXwX^ ` w.&.;X/ / } o ].oX@X` %.&.7.hX@.*.R.h ",
"e.p ) &. Xw.m =.N.fXhXF.C.`.p &.q.% r 7./ #.U.e.) ..%.) %.7 u.0.$ !.U '...& ZX8XU &.` NX&X( ;X_ f.- w $ oXxX+.e.U B.>XJ.o.+.) A ",
"..m...k _ R.; ) X.M.rXu %.Y ,.> $ %.>.|.q.].7Xt. XJ.Y.*.Y.(.^.) a i p U C.) Y (.U e o l.z W.;Xw -.zX;.U M ZX^.*.s.xX&.R.^ C.R.8X",
"*.&.9 ^ 4. X` e.x W T T +XM | C ;X>Xk.{._.M.q.^ g.R.T.; e.qXP T.=X@.B.X.1 C.K.uX9X8 %.F...|.lX) &X:Xc.sXR :XR.) q F M e./.8X6 C ",
"W C.Y.@X@X@XxXvXz T U.S Z /  .h.OX-Xq.s T./ / `.t./ +.m.%.| L ..%.J.;Xq.x >X) r ;X-X+...<XdXFXe.T H.H B f.d.].j.A   p 8.hXlXU.r ",
"T ^ ;X&.%.@XMXGX` W 0 } U wX(.Y.) `.Y.t.i.W.J.Z.xX].gX=X&...t.-XF C C.E.4X7.F $ |.;XJ.p | T.>X_.[ S :XE.hX#XcXFX| > o.T.U.7.g.0.",
"p.%.4.X.) &./ D %.&.E. X|.( e._ J.C (.*.>XR.Y n.F.*XF.R...m.C.) 4Xq U -XPX~.+Xs.f ` F.R.N F.J.} F 8X;Xd.;XJ.CXq.[ m +.U Y.(.f.:X",
"C b i.` +.U.;XZ _ p %./ {.(.Y e./ e a Y p 0 / T G.W U  XK.%X<XhXG.U.M.Y 5.~.) r F :X*XE.nXU C.r.].T.*.xX(.w./ A.d.| ] *.T.aXC.] ",
"e.T.^  XJ.(.DXwXs.8 ( h e.M [ 8 v U e.nXDXw s Y C.E T [ G.Z.*XlXp ) F.N.T.bXHXx.j.F r ^ 8Xp Z.i O < 4 ' t.R.XX+.R.R.C A ^ 7.&.OX",
"&.L  XyX{.ZXjXV ] > ( C f F qX[ Y E D g h.%.*.+.@X%X/ 8 @.B.W q.T g.*...X.#.-X[ j.U.| w #XB.6 @ 9 d.*.[ :XF Y.%.^ x.1. XOX;XT.W.",
"U i Y.@Xw. X@.U g.s +.r.].@ M T z ^ 9.0...Y p p 4.e  X* ^ Y ! n M.V 8 p U U.A z.e.p / : U ;Xz p ( ) ].b | >.+.} 8 e./  X;X%.C.n ",
"XX8.%.R.J.T.J.) OX%.n U U e ^ &.) Y.t.8X..&.Y U ..j qXe.@Xx x @.hXa.) kX(.-XU.i J.R.:X7.(./ u ( M.#X_.U.F.p p / q.XX` ;XT.;XX./ ",
"_ } %.%.=.&X].) ]  ./ / *.h. X%./ ) D 7.%.&.+... X@X@XZXHXh.P U * ) 4.A R.A J.&.` e *.) 8 % U p i ( *.) n M *. X} t.;X0.} hX(./ ",
"p W =X~.;.>.+./ m p.r.|.OX%.%.e.Y.vX_ } 9 @.U.Y.K.o.W.jXBXvXM.J.E.;XwX%.@.%.&X+.` Y ....} A /  X..p / *./ /  X%.C.qXe.&.U p m M ",
"A Y &.@.@.p ^ S XXM  X;X*.C.o.W vXlX-X*.R.W %.%XB.%.J.i q.@ r < d.%.) e.Y.} U @.X & 9 w.h L.( R.e.@.(./.+.;X X} 7.n i < p ..M M ",
"R.p Y W U s @X%.f.&X XxXX.*.e.p W T.m g.7.S %.t.0.( e.W.e.p ;X'.%. Xw.%.5XNXA < +.&.t.U.5.W.R.@.#.9 nXC.XXFX].0.vXs +.) w.W.J.*.",
") +...Y (.=XoXB f.` %.kXqX/. X&.W T.Y.h.E.7., ] h.s U.) U.Z.#.A.=XCXnX].i M &X].=X` 8 S ; 7.9X; M qX XJ.> ;X/ d.^ fX2X` 5.e.W. X",
"a %.R.J.+.W._.aX-X0.e h *.@.p j +.W.1XC.m {.M  Xa f.*.Y.9 _ vXC.7.} qXu ,.%.Y././.(.U t.m @.i f 8 $ ) >X..*.<X@.) 6 ) Y.} @X` ^ ",
"x E M U T.hX<X0X(.iXhX7.R.J.@...%.J.q.W.e.&XD &X&.t.) ..>.8X8X+.U S qX9XF.&.s : 9 ) J. X(.G...U o.% 6 Y u C.N.q.vXe.s *.8 R.+.p ",
") Y ) D 7.q J.U.s o.wXj 3.^ Y %.=XJ.A &.J.A 7.$ wXNX_ o A 7.%.W.W.) %.'.J.Y.nXt.J.9 e.s./ (.} M U.>X1XhXp 9 *.e.@X^.C.%.u./ U.&.",
"e.z W %.0.t.+._.&.( J.%.k.c Q &.{./ F mXcX} $ [ Y p ^ ; 9 X 9 T &.u +.N.@._ #X^.F.+.R.q.: OXq.^ %.NXC.4Xr.U.@.t.%X@.C.0X Xq.8XOX",
"C.M jXW. X;Xx 2 0.6 ( =XS M.W p [ C r 0X>X%.` r /.M o.9 o.$ m M %.U ) p e.W.;XK.@.Y.rXuX_ ..Y.J.o.&.@.` < ..M 0./ U f.d.K.|.t.s ",
":Xa.@.-Xi {.z +.) =X..F.Y Y Y X.C.p h 0.&.w. X=X/.G.Y ) ` >X&X1XDXr.3.) C.f.} A M =XU.9 9 8 [ OX3.wX0.U.%.=Xo.W.C.9X( z W.VX;XA ",
"u U / p _ ` 0.w.;X].e s U U OX` C.o._ / '._ 6Xg.&.W.s.M M vXqXY.} s.M M.M 7.T M < A &Xt.-XBXXXkXY.-X;Xr `.U./ *.6 wXqXs [ /.) u ",
"^ d.8 %.M e 0.J.%XqXT.7.i.p ` T.`.%._ ' d.%.T.U.[ W.t.l.[ %.T.@.%.M m w.%.R.s T e.w.;Xt.[ =X*X> 7 ( u ) ^ 7.p q.e.y.q./ 9 p *.} ",
"0.uXJ.w.#X..Y T @X_.;Xo.J.a +.p ) N m ^ ) F.0.].b g.q.&.U.o.%.| _ / ] U.] wXR...OX8XhX8 8 @ 6 * 7.t.` J._.&.) _ ^ ;Xp ).nX` U z ",
"F.M.'.U 8X` %.U %.n m.& * p Z.W 8 # ) p i T =X~.g.>.>.+.%.9 S a.G ].h.oXE.q.W.f.` @X|.q.M A U./ t.m U BX7.8 q.*.f #X..^ T.@X&./.",
"NXZ.+.ZXLXrXR.BXFXA 2 ) < * e.E ..@.S 0.o.E Y.Y n.Y p u ] } E./ OXqX X&Xd.) ) J.;X;X&X(.F.9 e.e @ V ] vX@Xe.8 ].w f.qXt.@.F.9 e ",
"rXB.r.* 9XR.& $ / &XA U.*.{.8XY.W.T U. Xz i @.~ U < *.].] S T.A &X-X;XY C.q.U L kXyXs.%.) Z : /  .+X[ M.Y.w.%.> 8 e 5XqXX r E.wX",
"&.&.+.N MXs.!.<X) fX1X<X` s OX..W.qX;XM %.&.m.E Y.q.e. X%.9Xe.>XW.e.uXE C.%.` U L.4.R.!.*.5.;X X].].E.f.].e.w.e / M.i i 3.$ p i.",
"T uXX.T %.fXG.W ^ 7 M Y.).9 -X..` j } J.F._ X.i W.@XqXs.v -.].` W.t.PX@X&X1XwXi E F.L.7. .E. X*.7.) /./ ` t.t.(.*.F.M o.@ A $ 6 ",
"& U ^ i F.A.U.Y.0X2.a 8 ^.M U.iXp ^ < < z ;X&.B.U @XC._.aX&XL.j 6 X 7.C.m.C.%.I.&.i (.,.s.| ..%./ p._ S !._ nXe.(.G.M.( U o.* $ ",
"Y.J.( @.+.A.U R.1X(.@X9 *.s * _.#.0 X.x z M U U Y.CXT.ZXvX(.qX8X7.5X%.*.T +.O s [ U C.Y x L / S } g.r.0.+X} f.v %.#XM } s %.@X_.",
"-XGXh.; $ %.(.R.).^.M.U T.8.$  X=XC...X.Y i ` u uX6X%.1X0XK.K.FXkX_ r.R.)...W X.f.) o.+.m +. XS T.r OX XT.T.U., ; R.T.0 u C.BXqX",
"@.|.9XJ.F.@.]. X@XM.@.(.7XwX< T t.e.j ..i U ZX; / p 8 J.%.< z  X6Xh 7.G 0.4 ^.d.} 2X+.J.@X;XA OXR.@XR.qX..].MXq.7.-X-Xe. Xw.vX*.",
"@./ 8 = C.s D A qX@.R.Z.9XW.BXh.rX&XE.J.( W p *.%.t.%.+.&XT.&.J.%X8X].' o.E F.&.#XB.B.&.W.~.+X>.t.w.f.FXW.T.t.W.$ U &.#X) ( ` @.",
"`  XM *. XU ;X9 U A r +.W.B.OX} f.9 &.) %.jXL.8XOXR.Y.m.#.@.o i ( / f k.c P 5 %XJ.o.M >X;X<XuX-XL.q $ f.Z.*.; ( ; 6 [ -XR.A r.8X",
"A / R.Y.T.0.U.&.(.qX( ^ ..J.xX;XOX8 f.j.m =XxXY W nXz x & t.a O.C.fXE.u ^.P X.9 %.uX%  X> -X>XK.vXkX].0.C.xX_ U.:X5X~.i.PXe.FX X",
"k.h `./.M %.T.9 h JXW.].9 jX-XcX` s d.;.E.+.T.].i L.x ( C.p =XY.B.(.B.i P x M.L #.U } L.) +._ z ].k.C ].;XuXvXq. XCX*Xr h.../. X",
"E.i ) 9X9 4 s *.p W.rXh.% 9 M.M.< U U 9 i } 2 %.s ..c L.=X>X@Xi 7 p B.E z W X.W U.z w.T.C.M.Y.s U vX9.3.( ..%.R.<XW.XXZ 9 6 ( 6 ",
"+.Y  X} s } hX&X) -Xf.h.M e 4 &Xx -XMX=XU # p #.% G kX9.%.L.rX X_ G i W.u 8X X1 W.z  XqXi p / U u %.r k.i n.J.` ; o r % F M 0.%.",
"7.-XC.C...) m T.p t.-XW.].DX^ [ ) '.3XC.CXr.J.iX` ^ U ; D 9XvX*.=XA p  X X%.nXwX} i U.) ` %.e./ @.<XT.x @.! / 8 X 9 } T |.} R.) ",
" XFX7.$ U [ ) T p : 6 %.L.0XW.z Y x @.P.qXNXp R.K.) P %.o _ &X%.@.* U t.q.1XqXJX` _ p f.d.} rXJ.4.%.&.i X.X.C.`.M J.Y.s 7.r q p "
};
