/* XPM */
static char *tile[] = {
/* columns rows colors chars-per-pixel */
"64 64 133 2 ",
"   c #544535",
".  c #5D4D37",
"X  c #564838",
"o  c #5C4D3B",
"O  c #5E513C",
"+  c #614F3B",
"@  c #63533D",
"#  c #69563F",
"$  c #6A5A3E",
"%  c #5D4E40",
"&  c #5E5242",
"*  c #645543",
"=  c #685643",
"-  c #665944",
";  c #6B5B45",
":  c #625748",
">  c #665B4A",
",  c #715E4A",
"<  c #6B5F50",
"1  c #6C6146",
"2  c #6E614D",
"3  c #736446",
"4  c #73634D",
"5  c #79664D",
"6  c #76694C",
"7  c #7A6C4E",
"8  c #6E6352",
"9  c #786753",
"0  c #756954",
"q  c #726758",
"w  c #756C5A",
"e  c #7B6D5A",
"r  c #777056",
"t  c #7D7256",
"y  c #7F785C",
"u  c #7D7361",
"i  c #7F7965",
"p  c #7E7669",
"a  c #826D53",
"s  c #816E5D",
"d  c #837356",
"f  c #82735C",
"g  c #89775D",
"h  c #8A7A5D",
"j  c #837563",
"k  c #897764",
"l  c #8A7C64",
"z  c #847769",
"x  c #857B6A",
"c  c #8B7D6A",
"v  c #917E64",
"b  c #927F6B",
"n  c #857D70",
"m  c #907F70",
"M  c #8F825F",
"N  c #90815E",
"B  c #86816B",
"V  c #8F8A6B",
"C  c #928265",
"Z  c #92846C",
"A  c #9A876B",
"S  c #938A6D",
"D  c #96906F",
"F  c #9C916E",
"G  c #8D8472",
"H  c #8E8872",
"J  c #8F867A",
"K  c #938673",
"L  c #988572",
"P  c #948B74",
"I  c #9A8C74",
"U  c #988779",
"Y  c #958C7B",
"T  c #9A8D7A",
"R  c #9D9573",
"E  c #9E9877",
"W  c #97917A",
"Q  c #9C937C",
"!  c #A38E7E",
"~  c #A19574",
"^  c #A39A75",
"/  c #A1957D",
"(  c #A39B7C",
")  c #A99D7D",
"_  c #A6A17E",
"`  c #AAA17B",
"'  c #B0A67F",
"]  c #958E81",
"[  c #9D8E80",
"{  c #979083",
"}  c #9D9483",
"|  c #9E9A83",
" . c #9E9689",
".. c #A29683",
"X. c #A49B84",
"o. c #AA9E84",
"O. c #A59788",
"+. c #AB9D8B",
"@. c #B09F8F",
"#. c #A69E91",
"$. c #AA9E90",
"%. c #B09F90",
"&. c #A7A087",
"*. c #AAA285",
"=. c #AEA984",
"-. c #A6A18B",
";. c #AAA38B",
":. c #ADA88E",
">. c #B2A485",
",. c #B2A985",
"<. c #B1A58D",
"1. c #B0A58E",
"2. c #BAAB8F",
"3. c #A9A092",
"4. c #AEAA91",
"5. c #AFA798",
"6. c #B1A694",
"7. c #B8A796",
"8. c #B2AD91",
"9. c #B2AC94",
"0. c #B8AC93",
"q. c #B8A798",
"w. c #B5AB99",
"e. c #B5B197",
"r. c #BBB195",
"t. c #B5B199",
"y. c #BBB39B",
"u. c #BEBA9F",
"i. c #B8AFA0",
"p. c #BCB4A1",
"a. c #C0B29D",
"s. c #C1B5A1",
"d. c #C6BAA1",
/* pixels */
"] } O.Y } ] } O.O.O.j q e 0 > ; 0 0 q > y > q x K e > +.+.c ; 4 v C 4 > Q 9.3.3.3.-.X.B > c I x T 6.3.q.6.6.+.q.3.;.c 2 0 I 4 u ",
" .} #.}  . .O.3.}  .e e Q O.X.X.c B y 0 * e Z ;.X.Z 9 * Z e s l o.I C f ; e O.O.;.j ; 9 f > q q j 9.q.6.+.6.+.B f > s b 4 @ q J ",
"G  . .] { } } { O.} e > H | ;.;.&.;.X.B 9 e ..X.0.d.B e * > e S >.) C y g 4 - Q B 9 j I o.v 9 4 j +.+.P K 9 q f l l 4 > 4 l l > ",
"> x ] O.{ }  .} O. .j > 8 Q &.X.;.X.X.B f l X.1.;.9.;.l q 9 l ) >.) I 9 l A 9 - 2 l P 2.o.1./ v > j 4 , e l P Q 9.X.X.Z 9 u Q l ",
"K > w } 3.O.} ] } Y 8 l 4 > P Q *.X.| l e B 9.0.;.;.9.X.Z g / / *.( >.C q / C a 9 Z 1.*.o./ ) o.h ; y R P ;.r.X.&.&.:.Q l w 4.3.",
"t.Q e < ] { O.} e o < j c 2 - P X.Q Q > 4 f ;.;.0.X.9.1.9 l o.) ) ( ) l 9 I C 9 l 1.1./ o.o.( Z 4 y B 9.;.&.*.;.&.Q X.E y q ;.;.",
"O.y.O.I > 8 q * % q x } ;.K e @ l ( y 0 j > j o.1.;.1.( , l ) / ) *.>.A 9 h f 4 f ~ / ) ( / C ; d 2 B 9.;.X.X.:.*.*.E *.f w X.-.",
"O.-.w.9.K o > u x G | } } O.T e @ q > c I 9 q r.0.1.;.Z 9 I ) / ,.>.>.~ h 2 , 4 ; + ; = ; @ ; 9 C 9 y 1.E &.*.&.&.*.*.X.t 8 X.4.",
"-.u.O.O.X.y u ..O.3.O.Q X.} } K q O e T o.C > B +.;.o.Z f R o.) >.>.o.A , ; f Q Q Z Z I I Z 9 C / 9 4 P &.&.1.X.&.*.&.*.g 0 Y -.",
"X.;.4.9.Q 0 x } } } } X.} O.} ;.G e > f P K f > Z ;.X.X.9 Z S A l l f 5 q P +.9.9.q.9.y.d.Z q 9 / A 4 9 *.&.*.*.&.:.&.1.B e u 3.",
";.O.3.;.l - y O.} X.} } O.} X.} 3.j e ; @ ; , q q X.0./ 9 4 # ; 0 f h l u ;.1.;.;.1.+.;.+.X.l ; S / 9 - P &.1.&.&.*.*.;.Q f e X.",
";.4.| 0 > j * Y } } O.Q } X.O.;.} 0 u ..B j j 9 > 4 X.I > 4 c Q Q 9.X.B > X.;.;.;.1.X.;.1.r.Z 4 l I h , 2 ( *.;.*.&.;.&.*.f y | ",
"X.B > f l S f > } O.} } X.} X.X.} > l X.O.;.;.T c y @ > Z Q ;.t.t.;.4.y u X.;.X.1.X.;.1.0.1.I 9 0 I v d > S X.r.:.:.&.&.*.9 u ;.",
"u 4 B P ;.1.o.4 q } Y X.X.X.Q O.K q w Q Q X.} P y 4 y P O.-.:.9.;.9.9.B q *.;.+.;.X.1.;.1.;.I q q / Z 5 2 0 ( R W P S S S 9 u X.",
"; l / ;.;.1.*.Z > 8 } X.Y } X.Y e 4 > > G y * * e c l 8 -.-.9.9.9.;.4.Q y c ;.1.;.;.;.;.1.;.1.l 4 ~ f @ 4 ; * ; ; - ; @ @ > > l ",
"y X.9.*.*.X.*.X.f ; * w q > - * 9 q f 9 + > K K 3.6.Z q w y.e.4.4.4.4.;.l 8 X.9.6.;.1.;.;.1.O.j > f ; 9 j Z Z P Z P Z c Z l y 9 ",
"2 1.o.1.1.o.X.1.I f e s k j U O.! j + 9 e T +.6.} +...l - Q ;.;.9.4.4.-.X.q Q 1.1.1.X.;.0.;.;./ g + ; q X.1.;.y.+.6.9.9.6.X.P e ",
"9 B 1.;.*.*.;.Z 4 k O.q.$.7.+.+.6.L s o q Y +.+.X.;.;.c f 0 ;.t.e.e.:.e.X.l q ;.X.X.;.X.;...1.+.l + f B o.;.X.Q X.o...o.X./ o.l ",
"9 y X.;.*.( f 4 c +.q.+.%.+.O.6.+.6.b c q } +...O.;.+.Q e w ;.;.t.9.X.4.9.l 0 ;.+.X.9.1.X.;.1.+.K f B X.Q o.X.X.../ / Q *.o.o./ ",
"9 4 *.;.P ; 9 m [ O...+.+...6.+...@.+.k * e ..X.+.X...X.j 0 Q 9.4.;.;.;.e.Q 0 9 Q ;.;.1.1.+.X.9./ B 1.o.X...X./ X./ o...Q X.X.Q ",
"a ; 9 l = s K q.+.O.+.O.6.+.6.O.O.+.+.U k K O.+.6.+.O.+.I e 2 X.9.9.;.y.l ; y q ; 4 y Q X.0.;.X.Q j X.*.X.Q / Q X.Q o.X./ X.o./ ",
"4 a = ; s U $.+.+.O.+.+.6...7.6.+.+.+.j u e f q > l X.+.X.c l u 4.;.W 0 2 l G Q l l 9 4 ; ; 4 9 a y X...X.Q / / 1./ X.;...X.o.I ",
"> v a s c +.+.6.+.@.O.6...+.+.%.+.+.K , q , e c u e * ; q 4 f - P f 9 e T +.+.Q 1...X./ l j Z Z 9 > Q X.X.X.X.X.X.o.X.;.;.Q Q j ",
"> Z a 9 c O...6.6.6.%.+.+.+.O.+...6.s e G +.} 3.$.} } G c z ..x 4 4 l c l P Q Q / X.Q X.+.+.K 4 ; 4 > Z o.Q X.Q / Q / X.../ Q 9 ",
"; 4 # 4 z 6.+.6.@.+...+.+.7.%.%.+.T q u O.3.3.3.3.3.3.5.i.w.w.} j > q 9 9 * * * > > * 4 ; ; 9 y t B 9 O B X.Q / X.Q *.1.*.../ 4 ",
"4 9 f 9 q ..1.6.O.+.6.+.%.6.O...9 , f q G O.3.O.O.6.w.3.6.w.3...e u G X.Q G P } O.X.P P P G B y S 1.B 0 ; l Q / o.Q ..o./ Q f 9 ",
"( X.X.Z 9 q +.6.+...+...+.6.K , q Z Q / > } 3.O.3.#.O.3.3.3.6.K e j x O.4.3.t.w.-.3.4.4.p.4.l 9 ( E *.S d ; 9 I / Q Q Q I f Z X.",
"o.( X.1.P s > T O.+.+.+.+.K , e Q 1.X.;.l 8 3.3. .O.3.3.$.3.3.j u y y ;.O.3.;.O.-.;.O.X.4.P q y E ( *.:.( B 4 @ ; q f f f P ;.X.",
"Q o.X.o.X.I f > e m ..b j = e X.*.X.Q X.P q x } O.O.3.6.3.O.Y e x e 8 -.-.-.-.} ;.-.;.;.X.4 g ( _ ( _ ( =.*.g Z A l d 2 ( 1.X.Q ",
"( X.X.( X.;.1.l 5 4 4 9 f e l Q Q ..X.;.Q 9 q q q 2 > 4 > q * = 8 2 0 ;.| ;.-.-.-.| 4.X.l 0 V E ( ( ( E =.E d 8 9.I 9 0 / X.( ( ",
"o.Q X.X.( ( X.( f 9 ) ) ~ 9 l ..Q X.o.X.f e B X.P / Q P Q X.K Z q e 2 y X.;.O.-.;.O.;.| 2 r _ _ R *.R =.E ( C 2 ; 4 e - B ( ( ( ",
"/ *.X./ o.Q *.1.Z 4 S ( l 9 P T *.Q X.Q q e B :.;.y.y.y.w.9.l l c T c > u ;.9.4.-.;.9.H 0 B _ _ ( ( ( ( E ( B 9 c B l t * l ( *.",
"( Q *.o.( Q Q *.Q f @ R C 4 P Q X.X.Q I 4 l ;.-.X.;.:.4.;.y y Q +.9.T l > 0 G ;.O.O.| l 0 R ( R ( ( E E ( =.t 8 G P 0 h 7 ; ; f ",
"0 X.*.X.o./ X.1.*.l 4 9 a y Y o.Q o.X.l q B 9.;.;.e.;.l > ; j ;.X.X...L b > 2 O.X.;.} 0 r ( E _ =.*.( ( E E 6 w H B 0 d ) C d ; ",
"- ; 0 P X.( Q ( Q P l 4 f B / X.Q X.Q 9 e X.9.;.;.Q 9 f Z 9 0 1.+.X.+.3.Z l > w X.9.c 2 2 g D R E _ W _ E B 9 8 P X.g 1 ^ 1.,.h ",
"h d 4 ; l 1.Q Q Q Q f 4 4 B X.X.o.o.( q y X.Q l 4 2 l Q P e > Q X.+.;.1.1.b y * 2 4 e b 4 > ; O t R ( ( _ B y 8 Q | y f S ^ ( ` ",
"( ~ N d ; P ( X.X.( h 2 0 B *.Q 1.X.1.a 2 4 - y Z X.X.;.9.f > B 6.X.o.o.X.6.I 9 > q } 6.6.q.T Z @ @ B R E t 9 w Q Q y 9 ^ ~ R ^ ",
"^ ' ` F 7 ; P *.X./ Z 4 O * f / ;.Q B , y l P ;.d.1.&.;.X.9 > P ..+...+.X.P > 9 f e T +.;.+.q.I b q O @ g 4 y Q E H q y R ^ ^ R ",
"^ R R ( F d ; l P Q 9 9 9 4 @ - l P 4 y Q 9.9.1.1.;.1.&.X.9 w T ..o.1.../ 9 4 l l 5 c 6.9.6.;.y.T K T 9 . 0 B W E B y B R R R ` ",
"^ R ^ R ( ^ d 4 @ @ 0 l ( X.S 9 4 @ - q 0 y l P ;.X.*.;.*.y 8 y ..X.+.1.q , f / h 9 T ;.+.+.6.6.a.6...K l 8 P } X.B t R R ~ ^ R ",
"R R R ( ` ` ` h 7 y B Q ( ( Q 9 4 l B Q B l y * 2 f P X.1.f y * T +./ ; ; 9 Z I h 9 ..7.0.+.1.;.6.6.9.6.k > G Q X.y 0 R ^ ^ ~ R ",
"^ ^ R ^ R ^ ~ 7 9 B Q Q Q y * 4 P B 0 X.t.4.9.P y 9 - 9 l 9 e w c I = 9 9 B ~ I l > T +.;.+.+.+.;.q.O...s 0 y Q Q 9 t ^ ^ ^ S ^ ",
"R ) ^ ^ R ~ 3 4 l W Q B ; 2 l ;.-.Q y 2 | e.4.t.e.X.j > 4 4 e > + + @ 9 9 ) ~ I C f K 1.1.+.6.+.1.+.+.+.K k - G Q 9 t ~ ^ R ^ R ",
"R R R ( R 6 9 l Q y @ 2 l X.9.u.9.X.B w | 4.-.-.4.4.P > l / I Z f q f q o d A A C 4 K +.+.6.6.O.+.T k 9 = 9 9 o 4 0 g ` R R ) ^ ",
"R ~ ^ ^ M 4 B 0 - * l P 9.t.4.9.9.9.P 8 W -.-.-.9.u.X.e 0 P / f > j X.K e > + @ @ ; = q K +.o.k > 4 j T / ..X.T f ; ; g F ~ ` ^ ",
"; ; @ @ ; - ; o 0 G -.9.4.4.4.-.4.4.Q B y -.-.4.e.4.;.y 0 Q l = > P G G T Z y q y Q Q e > , ; e I O.9.s.9.;.y.1.c Q f @ 6 7 3 $ ",
"G P K Y c > q B W t.-.-.:.4.t.9.9.:.e.Z > | 4.4.4.:.| w 2 I > > w K G K G G l > w 9.9.X.P j j +.w.;.6.0.;.1.;.Q > u B P q f j c ",
"O.9.} } T f u -.4.4.4.;.-.:.e.9.9.4.9.Q B w 4.-.-.e.4.l > l ; 8 B G K P G P u 0 w X.;.;.Q y c ;.9.0.O.+.+.1.;.o.j u w.l j Y 3.5.",
"O...+.;.} e w 4.-.:.;.;.O.;.-.9.4.4.9.4.B 0 B :.-.4.| y > > ; : P G G G G P B q y -.-.4.X.e x 9.+.a.;.O.6.X.O...e x O.j < x } } ",
"Q X.X.O...k > ;.;.;.-.;.-.-.;.;.4.;.e.9.B 9 - 2 H | &.l * ; l - 8 G G K K G P > > | | ;.B e G ;.;.+.;.9.;.+.+.T e p O.j w G } } ",
"Q Y X.;.X.P e l ;.;.4.y.9.4.4.-.9.;.-.P 4 9 y 0 2 2 ; f l R X.l o u G G G K G 0 9 0 ;.;.B c ..9.;.+.;.;.;.;.9.T q x ..> q Y X.} ",
"} +.} ;.[ O.u 2 Q 4.4.-.;.e.e.4.4.y.9.9 9 f G Q X.X.l 8 P 9.X.Q 9 & c P G K G l q w X.-.f w ;.6.+.;.1.O.O.X.+.B 9 x x e G O.} } ",
"..X.T } X.} u 0 u 4.e.4.-.;.X.;.-.y.Z t ; B Y X.X.| B q 0 P X.X.P * j K K G K j 8 i X.X.4 c ;.;.9.;.+.6.9.9.;.X.j n u q } } } Y ",
"} } O.....} c w u :.-.4.9.y.4.Q P y 2 ; 4 x } | ;.;.P l - B ;.;.I 0 > G P B K 8 > y 9.I f Q +.6.9.9.;.9.;.T e , , q q < X.X.+...",
"} ..} X.O.} Y e 2 Q -.-.;.B 9 ; 2 f y 9 2 Y | ;.;.X.O.;.y > o.Q X.f & l x u l e > 0 ;.P q X.;.+.;.X.X.P 9 * q c T c e * j X.X.X.",
"} } +.} c q * 4 q - 4 ; - 4 g g R R B 7 2 > Q -.} Q X.-.f e Q o.1.I - o   o   X 2 > B 9 q X.O.O.T j 9 > j ..+.3.p.q.+.c > c } } ",
"} G > = > 9 Z Z a 9 4 9 B P ( 1.R S ; 0 B 0 8 X.O.| | | l y Z Q Q > u l B G Y Y / j * 4 2 9 j y ; 9 j Y 6.6.6.3.3.q.6.q.Z * x Y ",
"> * 9 f I / I ~ v 0 B Q ( R R *.R 6 9 x O.P 0 8 -.} X.-.K 0 4 4 @ y Y 9.3.4.;.w.t.y.X.P j j e j G ..6.w.q.;.+.6.s.3.6.3.+.e 9 > ",
"Z > l / I I ~ I 5 9 B R P ( ( S 6 0 K 3.O.3.I > y O.;.X.9 > 4 9 y X.3.9.-.9.-.9.;.3.4.c j } K q } q.;.w.6.+.6.3.3.q.6.9.X.j Q ;.",
"1.9 = ; 4 ; 4 l 4 0 W P P Q S ; q G ;.O.} } } j 2 H P > q j k f q Q ;.;.O.9.;.9.;.4.4.c y G K j G 3.q.w.3.6.w.w.w.w.6.;.j y Q ;.",
"I q e u 9 8 q * . 2 P R R y 6 l G O.O.;.....O.Q 0 - 4 4 j P +.I 9 w ;.O.4.;.O.X.3.4.3.l > B X.e K q.q.6.3.9.6.9.6.+.;.P f B O.9.",
"9 w O.#.$. .} x e - l P 0 * j Y 9.;.;.Q } } } } q > f f > G T ..9 q } 3.-.9.3.;.9.4.9.K j G ..e x 6.3.q.6.3.y.3.3.+.6.l j Q ;.;.",
"e n  .} ]  .O.O.Y 2 - 4 2 j } O.X.X.;.O.X.O.T 9 4 q T l > > P T 4 8 G 3.4.;.3.3.;.O.-.X.u P Q u Y 9.9.3.3.9.9.9.3.3.6.e u X.;.l ",
"p ] O.} O. . .Y  .c * - j Y X.} } O.X.} } G > 0 Z 8 P T j > q y * > q | y.O.-.;.O.w.9.H 8 B B > Y 6.3.y.3.9.3.6.q.q./ f P ;.Z 9 "
};
