/* XPM */
static char *wood[] = {
/* columns rows colors chars-per-pixel */
"64 64 158 2 ",
"   c #371D19",
".  c #3B1F1B",
"X  c #3E211C",
"o  c #44241D",
"O  c #49271E",
"+  c #47281F",
"@  c #4D291E",
"#  c #532C1E",
"$  c #592F1F",
"%  c #5E321F",
"&  c #5C301F",
"*  c #5B301F",
"=  c #472620",
"-  c #482620",
";  c #492720",
":  c #492720",
">  c #4A2820",
",  c #4B2820",
"<  c #4A2A20",
"1  c #4D2920",
"2  c #4D2921",
"3  c #4E2920",
"4  c #4D2A20",
"5  c #4D2A21",
"6  c #4E2A20",
"7  c #4F2A20",
"8  c #4E2B20",
"9  c #4F2B20",
"0  c #4E2A21",
"q  c #4F2A21",
"w  c #4E2920",
"e  c #502A20",
"r  c #502B20",
"t  c #512B20",
"y  c #502A21",
"u  c #502B21",
"i  c #512B21",
"p  c #522B20",
"a  c #512C20",
"s  c #502C21",
"d  c #512C21",
"f  c #522C20",
"g  c #532C20",
"h  c #532D20",
"j  c #522C21",
"k  c #522D21",
"l  c #532D21",
"z  c #522C22",
"x  c #532C22",
"c  c #532D22",
"v  c #532E22",
"b  c #542C20",
"n  c #542D20",
"m  c #552D20",
"M  c #542C21",
"N  c #542D21",
"B  c #552D21",
"V  c #562D20",
"C  c #552E20",
"Z  c #552E21",
"A  c #562E20",
"S  c #572E20",
"D  c #572F20",
"F  c #562E21",
"G  c #572E21",
"H  c #572F21",
"J  c #542D22",
"K  c #552D22",
"L  c #562D22",
"P  c #542E22",
"I  c #542F22",
"U  c #552F22",
"Y  c #552E23",
"T  c #562E22",
"R  c #572E22",
"E  c #562F22",
"W  c #572F22",
"Q  c #562F23",
"!  c #572F23",
"~  c #542D21",
"^  c #582E20",
"/  c #582F20",
"(  c #592F20",
")  c #582F21",
"_  c #592F21",
"`  c #5A2F20",
"'  c #582F22",
"]  c #592F22",
"[  c #582F21",
"{  c #573023",
"}  c #573022",
"|  c #593020",
" . c #583021",
".. c #593021",
"X. c #5A3020",
"o. c #5B3020",
"O. c #5A3120",
"+. c #5A3021",
"@. c #5B3021",
"#. c #5A3121",
"$. c #5B3121",
"%. c #583022",
"&. c #593022",
"*. c #593023",
"=. c #583123",
"-. c #593123",
";. c #5A3022",
":. c #5A3122",
">. c #5B3122",
",. c #5A3023",
"<. c #5A3123",
"1. c #5B3123",
"2. c #5B3223",
"3. c #5D3120",
"4. c #5C3121",
"5. c #5C3221",
"6. c #5D3221",
"7. c #5F3320",
"8. c #5E3321",
"9. c #5C3122",
"0. c #5D3122",
"q. c #5D3222",
"w. c #5C3223",
"e. c #5D3223",
"r. c #5C3323",
"t. c #5E3222",
"y. c #5E3322",
"u. c #5D3423",
"i. c #5A3224",
"p. c #5B3324",
"a. c #5C3224",
"s. c #5C3122",
"d. c #603421",
"f. c #623521",
"g. c #603523",
"h. c #633522",
"j. c #623523",
"k. c #633623",
"l. c #603524",
"z. c #633624",
"x. c #623625",
"c. c #643724",
"v. c #623523",
"b. c #683721",
"n. c #633823",
"m. c #643924",
"M. c #663926",
"N. c #653825",
"B. c #683924",
"V. c #693A25",
"C. c #6A3A25",
"Z. c #6A3B25",
"A. c #6B3B25",
"S. c #683A26",
"D. c #6A3B26",
"F. c #6A3A24",
"G. c #6D3E28",
"H. c #734128",
/* pixels */
"O b o @ b , b O X O _ @ 8.b # o o O b m.o 8.@ b 8.o 8.O @ 8.o 8.b , @ 8.% 8.@ # b o 8.o @ @ @ 8., @ 8.O b 8.O X # _ O f.8.# o ; ",
"b b 8.@ X o b @ o # 8.@ b O b # O b b _ o 8.O b _ o b # o 8.o f.8., @ _ # b O # 8., 8.o # O # , , @ # O 8.8.# o b b @ 8._ 8.O X ",
"b # b # @ o b @ o 8., b o @ b # @ # b b o 8.o b 8.o @ 8.o b o 8.f., O f.@ @ b O 8.@ b @ # b b o o b # @ = 8.$ # b @ # b 8.@ b @ ",
"# b O @ 8.# @ b # 8.O @ @ _ o b _ # b b o 8.o b b o @ b o b o f.S.O , 8.o # b @ b , # b % # # X o # o O . b 8.@ b # , o b # # 8.",
"@ b o @ b 8., 8.# _ O @ 8.b . O O b b , o $ o b b o b @ o _ o f.m.@ b _ o O b b b o b @ S.@ # o X { o O X o _ 8.b b o o b b @ , ",
", b @ @ o b , # m.8.@ @ 8., o o 8.b , O o # O b b X _ o o b o 8.H.b @ 8.o O b 8.@ O b b f.O O # o 8.o o o X 8.b @ b o O , b @ @ ",
"@ b # @ O @ o S.f._ @ # b o O X b O o o o b o , b . 8.o o b , S.S.b b 8.o O O _ b @ b b @ # @ _ O 8., o o X O = b , # 8.o _ , # ",
"$ b f.# b # @ b # 8.O O @ o O o o O X o o O @ @ , . b o O # b S.f.b , b . O @ 8.@ o b @ @ O O b # 8.b o o o X X @ b 8.f.o b , , ",
"8.b b _ o b , b b 8.O @ o X o o o b . O . O # o O X b O @ b O 8.# b @ @ . 8.b b @ o { O @ O o b 8.b b , o o . o , b b 8.@ o O @ ",
"b @ 8.8.o b O b b 8.@ b X X O o o @ o O . o # o o o b O o b @ # # b @ # o b b b @ O b @ o o O b b 8.b b O o o # b O b 8.f.O 8.b ",
"o @ b b # @ , 8.b b b b X X o @ o # O o X o # o o o b @ , b , # f.b 8.o O @ @ b # 8.b 8.@ o O , = b , b O o o @ b @ b b b b O o ",
"o o , O 8.@ O 8.b 8.b b o o X b o 8.@ O o X # o o @ # @ , @ b # f.8.8.o O O b , @ @ # @ o o o o . O O , o o @ # @ # b o , _ o o ",
"@ o O X b b O b b 8.b b = b b o o # # o o X @ o o , @ @ o @ b $ f.b # o o @ b @ O o b o O O o o o . o ; o o o @ o # , . X b % # ",
"8., b o X b @ ; = , 8.b , b 8., X 8.f.o o o o b o @ , @ @ O b 8.% b m.o o @ # # @ O b b @ # o o O X . o X o O # o 8.@ . X , 8.8.",
"8.b , @ o , b o X ; # O _ 8.O # X b # o , o @ # O @ b O O O b # % _ 8.o o b b # O , b @ @ # o o $ o o o O o { , o _ O . o X b 8.",
"b # b f.o @ 8.X   X b @ 8.# o 8.o b f.o , ; o # O @ b o O # b # # _ # o # b b @ , b @ o % b o o # o o O # o # @ o o O o O o o o ",
"o 8.@ # O o b @ X o b O # O b @ o b m.o b , O 8., @ 8.o , # b S.@ _ 8.o b @ b # b o @ 8.8.f.O o # o o # % O O o o . # 8.# o X . ",
"o b o 8.@ o b # o O b O @ o 8.b o b m.o b b o 8., b 8.O , # b S.% # 8.o # b # _ 8.o 8.8.8._ @ @ 8.o @ # 8.O O o X . b $ O # o o ",
"_ ; b 8.@ o b 8.@ # b @ o , % b o 8.f.o b b o f.@ # b o , @ m.f.S., 8.o # b # @ 8.O b b f._ _ @ m.O # f.f.$ O = O . @ 8.# f.# # ",
"f.o O _ # @ b # % f., @ X b 8.# O b 8.o b b o S.# # 8.o , # f.S.S., 8.X b b b @ # @ o b # b # o S.@ 8._ _ o O , b . # 8._ 8.8.8.",
"f.o # 8.8.# b 8.8.b @ O X b # @ @ b # o b 8.O # f.# 8.o O O # S.f., 8.. 8.b @ o # @ 8.@ b 8.8.@ m.$ f.8.b # O b _ X # # O f.8.8.",
"8.b @ , 8.8.# b 8._ O O o 8.# # @ b b o 8.8., # 8.8.@ O b o b % f.b b X @ b # o O # @ b 8.b _ # f.% b , o b O b 8.o @ O O # b b ",
"b 8.8.o @ 8.# b f.b O o o b m.O @ _ b o 8.8., # # 8.@ @ # o 8.# $ @ # o 8.b b , o @ # @ b , 8.# f.8.b o o o @ 8.f.o O O O b b b ",
"O m.@ O o 8.# b 8.X @ O X b b b @ b @ o b 8.b o f.8.b o { O # # $ @ 8.o # b b _ o # 8.O , o 8.f.f.8., X o # O b f.o b O @ # f.b ",
"@ 8.o @ # 8.8.b @ o $ # X , @ @ @ 8.# o b 8.8.O 8.m.8.. b # 8.$ m.O f.@ b # b 8.o 8.@ b o X b b b b X X o # b 8.8.o b o O 8.$ b ",
"_ 8.o b 8.8.b O o O # # . o o O @ 8.8.o b 8.8.@ _ 8.b X # # @ # m.@ f.@ b # b 8.o @ @ b . . b b o ; X o @ 8., m.f.@ @ o @ 8.b _ ",
"b # O b b b f., o # _ # o . o # , 8.f.o b 8.8.o _ # , o @ o @ @ 8.# _ O O b # f.O # 8.# X X , O o X o O O _ b f.S., b o b 8.b # ",
"b # O @ b b 8., @ 8.8.b O X o o , 8.f.o _ _ 8.o 8.b @ o # o O o b O # @ b b # 8.o 8.8.@ O o o o b O @ # @ 8.b 8.f.O # X # @ b b ",
"b # 8.b b 8.8.; # 8.8.b # o O b @ 8.b o f.8.f.o 8.b O o b @ $ # 8.b # $ O b O # o b 8., @ o . O f.# % # b b b # f.o @ . # @ b @ ",
"@ f.# b 8.m.8., O # @ o # o # 8.O f.b o f.f.8.o 8.b o X b 8.O @ f.b 8._ @ b o # o @ , @ # O o @ 8.# # # # @ b O 8., , . b O # , ",
"@ f.O b m.8.8.b @ O O X # O # @ O f.8.o m.S.8.O 8.b o . b # b m.8.@ 8.b @ b X @ o O o b # O O b 8.8.S.m.# # 8.$ 8.O b . b f.b # ",
"@ 8.8.b 8.f.# b O @ $ O # f.f.b O 8.m.@ f.S.8.; _ , o X 8.# @ m.8., m.8.O @ o X o O o b @ % @ 8.b b 8.f.8.@ # % # @ @ . b 8.b b ",
"b b 8.@ @ { # b X # 8.$ @ O _ # O 8.S.@ 8.m.S., b o X o b 8.O $ 8., f.b 8.@ b o b b O b @ % # b b _ 8.S.O o 8.# f., @ o # # 8.b ",
"b # 8.b b # # b X # o @ @ m.b # O f.# , 8.8.# @ b o X o 8.8.O # 8., _ , @ b b o b # 8., @ f.$ b b 8.8.f.b O 8.o f.b # o # 8.# b ",
"b G.f.@ # o # b o # @ o @ 8.b # O f.# b 8.f.# b b o o O b 8.O # b b 8.b b b b o @ b 8.@ @ b f.b , , 8.f.b , 8.o f.b @ o 8.8.O , ",
", f.8.b # O f.b X 8.@ o b 8.b # O f.# b @ m.# b @ o X 8.@ b @ 8._ O 8., b 8.8.o @ b O b @ @ _ 8., ; b f.@ , 8.o $ b , o 8.b # @ ",
"o 8.b b f.# f.m.o O 8.b O 8., # o f.8.# @ f.O b @ o o 8.# 8.O b b O b o _ # @ O @ # @ b b b 8.b ; o , 8._ @ _ o # b @ o 8.f.# O ",
"O _ b _ f.% # f.o O , @ O 8., # o m._ b O m.O 8.# o o 8.8.O b b b O , O b 8.$ , , @ , @ @ b 8.; o . o b b o $ o # b O o b f.O # ",
"O 8., # m.O # m.o O O O @ o ; # o m.@ 8.o f.# _ , O o 8.8.@ b b b @ o @ _ @ # , b b o # @ @ o X X . X @ b o f.O # b O @ b 8.O b ",
"o _ O 8.8.$ # 8.o @ o @ # o o # O # @ b o f.O 8.o O o % b # O b b , X @ b O o b b @ @ O @ b o X o o o o O o f.O # 8.@ O b # f.O ",
"o b o b # S.@ # o # O o b @ X 8.o @ @ @ X 8.O f.O O # f.b b o b 8.b X 8.b X o b @ # b O @ b o @ # O @ O O b f.O # 8.@ o 8.# f.@ ",
"O , @ b 8.S.# # o b , o @ 8.o b o b @ # o # o f.O b 8.f.b $ o f.b # o b # X o @ @ # b b b , @ @ 8.b $ b 8.@ f.O # # @ o b _ f.@ ",
"O O O b 8.b.$ 8.o # , o , 8.# @ o 8.@ O X 8.O f.o b # # @ 8.o b b # O b b o o @ @ b @ @ b O # # 8.8._ 8._ o # o b # @ , b # S.o ",
"o o O O 8.$ @ f.O # O o b b % # O b O @ X # f.8.o O % _ O 8.o b , 8.O b o b X @ @ @ b b # # # 8.b 8._ 8.b O b o # b @ o b @ 8.O ",
"o . _ o 8.# # f.@ o O o b @ f.@ @ 8.@ o o f.f.f.O 8.f.m.o f.X , O _ f.b o 8.o b b @ b b # 8.b b 8.f.b o , @ 8.o # 8.@ O @ # 8.O ",
"b X # o 8.$ O 8.b o O O b @ b # X _ b O o 8.% # @ 8.8._ o m.o o o 8.# b O _ ; b b O , _ # @ b 8.8.8., o O b b o 8.b O O @ # 8.O ",
"# o b o f.$ # 8., o , 8.b o 8.@ X 8.b X o 8.O $ O @ @ 8.X 8.X o o b m.O @ b , b b O @ 8.8.O O 8., 8.@ O o 8.b o 8.@ o b # # b # ",
"O @ b O 8.% $ b , @ # 8.@ o ; _ X 8.@ o o 8.O f., b O 8.. 8.o X o b _ o b 8.O b b o @ # b @ O , o b @ b o f.O O # , o O O @ # # ",
"# @ , @ 8.f.O _ b b b b @ o O @ o b o o O f.# m., b O 8.X 8.@ . o b b o # $ b b b o @ # b , o o X @ b 8.@ $ o o 8.b X , , b # b ",
"8.$ @ b b 8.O 8.b O , o 8.o o b o @ @ o o 8.O 8., @ 8.b X _ o X X , b o f.# b @ b # b b b X o X   o _ 8.@ _ o O # b X @ @ b # # ",
"# # o 8.b 8.8.8., @ @ o # o @ b o b # o o b # % , O b , X , o X X o O @ @ # @ O b { b b b o @ . o O b 8.8.$ o o f.@ o @ 8.@ # o ",
"8.8.o 8.8.# $ 8.b @ , O b o b O O _ 8.o O b 8.m.b o O , o O o o X . o , b O b O o @ @ _ b o 8.o o 8.b 8.8._ o @ b # o b @ O O o ",
"b 8.o 8.8.# # m., , , O # # b @ O , # o @ b 8.8.8.o O O o O @ o . . b b o o 8.O O o b # ; o b @ O @ , b 8.S.o @ , # O b 8.# # @ ",
"b b O % # _ # 8.X o , O @ # 8.b O b # X b , S.# 8.o b o O O O o o X 8.b o X f.@ O O O # , ; @ O @ # O o b 8.o O b $ # { 8.# # # ",
"b b @ # 8.f.8.# o @ b , @ 8., b @ b # o # O S.o b o @ @ O , o o o o # 8.X X 8.O o b O @ @ ; b 8.f.8., X o b o O b f.# @ # O @ # ",
"; o b @ _ f.# $ o # b @ o b o b O @ # o b o S.# _ # @ b b b O o , o 8.b o o b O O b O b @ O @ 8.$ f., o @ b @ b b f.# # @ @ # # ",
"X O b o # 8.@ b % # 8.8.o o o , # @ @ o # O f.8._ b , , b , o @ b o O b o o # @ # b O b b , b # # # O # 8.b @ # b f.b b O @ @ # ",
"o # @ o @ f.@ 8.8.8.b b . o # O # @ # O f.o 8.8._ @ b o b , o b 8.o b b , , @ b O O O b , , b b f.$ , 8.8.O 8.8.b m.b b b o b $ ",
"# O b @ b 8.o 8._ b b b X @ b o % b _ O @ o f.m._ X b O # O o 8.8.o O # b b , { o O @ b @ , b b 8.f.O 8._ @ 8.8.b 8., b 8.@ b 8.",
"8.O o 8.@ f.o 8.8., 8.8.@ # o O $ @ 8.@ @ o 8.f._ o b @ b O O b b o @ @ 8.8.@ , O O @ @ , @ @ 8.# b @ f.f.@ # _ b f.b b b _ b # ",
"8.b b @ O 8.o b 8.o O 8.$ b @ # 8.O f.@ b @ _ # 8.o b O # b @ _ b O @ b b b @ o b O @ O b @ b 8._ b b , 8.O b b ; , b 8., b @ f.",
"@ b @ o O b o , , o O 8.b o 8.8.b @ f.f., b b b f.O b b O O o 8._ O b @ 8.b O o 8.@ # O b # @ b 8.@ o o 8.@ , , X o @ 8.X , b 8.",
"@ b @ # @ 8.@ o o o # b o o , b b @ 8.O @ b b b f.@ { @ @ # o _ b @ @ b 8.b o O b o @ O 8.{ @ b 8.b o o 8.8.o o . @ @ b O @ @ b ",
"b { b @ 8.b O o . o $ ; @ # o o o O 8.8.# @ , b 8.@ 8.O @ 8.o _ b b , b O b @ O 8.o b o 8.b O b b b # O b 8.o . o b @ 8.% # @ 8."
};
